<svg width="270" height="270" viewBox="0 0 270 270" fill="none" xmlns="http://www.w3.org/2000/svg">
<rect width="270" height="270" rx="135" fill="#7ED5E9"/>
<path d="M93.664 166C93.664 162.757 94.176 160.155 95.2 158.192C96.224 156.229 97.2053 154.821 98.144 153.968C99.168 153.029 99.6373 152.645 99.552 152.816L106.848 159.472C105.568 161.776 104.416 163.355 103.392 164.208C102.453 165.061 101.984 165.659 101.984 166H93.664ZM93.664 116.208C93.664 112.965 94.176 110.363 95.2 108.4C96.224 106.437 97.2053 105.029 98.144 104.176C99.168 103.237 99.6373 102.853 99.552 103.024L106.848 109.68C105.568 111.984 104.416 113.563 103.392 114.416C102.453 115.269 101.984 115.867 101.984 116.208H93.664ZM132.272 195.696C132.272 190.491 132.571 185.541 133.168 180.848C133.765 176.155 134.448 171.589 135.216 167.152H128.304V156.784H137.008C137.179 155.845 137.307 154.949 137.392 154.096C137.563 153.243 137.691 152.389 137.776 151.536C138.459 147.013 139.184 142.448 139.952 137.84C140.805 133.232 141.915 128.837 143.28 124.656C143.707 123.291 144.133 122.053 144.56 120.944L140.336 122.864C139.397 123.547 138.288 124.528 137.008 125.808C135.813 127.088 134.533 128.24 133.168 129.264C131.803 130.288 130.437 130.8 129.072 130.8H128.816V120.432H129.072C130.267 120.432 131.504 119.877 132.784 118.768C134.064 117.573 135.259 116.592 136.368 115.824C138.501 114.288 140.635 112.88 142.768 111.6C144.901 110.235 146.992 108.997 149.04 107.888C149.723 106.011 150.448 104.176 151.216 102.384C151.984 100.592 152.709 98.8853 153.392 97.264C154.843 93.7653 155.995 91.1627 156.848 89.456C157.787 87.664 158.469 86.4267 158.896 85.744C159.323 85.0613 159.536 84.592 159.536 84.336H159.92L166.064 87.152H166.32C165.979 88.6027 165.296 90.3947 164.272 92.528C163.248 94.6613 162.267 96.624 161.328 98.416C160.389 100.208 159.835 101.275 159.664 101.616C159.579 101.957 159.408 102.299 159.152 102.64C160.859 101.787 162.949 100.763 165.424 99.568C167.899 98.288 170.203 97.648 172.336 97.648C173.019 97.648 173.872 97.776 174.896 98.032C176.005 98.3733 176.688 99.1413 176.944 100.336C177.285 101.531 177.456 103.749 177.456 106.992C177.456 111.685 176.987 116.379 176.048 121.072C175.195 125.68 174.213 129.861 173.104 133.616C172.336 136.261 171.227 139.163 169.776 142.32C168.411 145.392 166.917 148.379 165.296 151.28C163.675 154.181 162.053 156.699 160.432 158.832C158.896 160.88 157.573 162.245 156.464 162.928C154.672 164.037 152.667 164.891 150.448 165.488C148.315 166.085 145.627 166.512 142.384 166.768C141.531 171.632 140.763 176.411 140.08 181.104C139.483 185.797 139.184 190.661 139.184 195.696H132.272ZM144.176 156.272C148.187 155.931 151.045 155.248 152.752 154.224C153.861 153.541 155.099 152.219 156.464 150.256C157.829 148.208 159.195 145.904 160.56 143.344C161.925 140.784 163.12 138.352 164.144 136.048C165.253 133.744 166.021 131.909 166.448 130.544C167.643 126.619 168.581 122.864 169.264 119.28C170.032 115.611 170.459 112.155 170.544 108.912L153.52 116.72C152.923 118.597 152.283 120.475 151.6 122.352C151.003 124.144 150.405 125.979 149.808 127.856C148.443 132.037 147.376 136.219 146.608 140.4C145.925 144.496 145.285 148.677 144.688 152.944C144.603 153.541 144.517 154.096 144.432 154.608C144.347 155.12 144.261 155.675 144.176 156.272Z" fill="black"/>
</svg>
